# xmcd
#
# Track frame offsets: 
#        183
#        14500
#        25788
#        40828
#        54100
#        67720
#        79578
#        91278
#        104470
#        118450
#        129495
#        140700
#        152603
#        162943
#        178503
#        192275
#        204083
#        216615
#        226440
#        243375
#
# Disc length: 3400 seconds
#
# Revision: 0
# Processed by: cddbd v1.5.2PL0 Copyright (c) Steve Scherf et al.
# Submitted via: ExactAudioCopy v0.99pb4
#
DISCID=0d0d4614
DTITLE=Conway Twitty - Greatest Hits Final Recordings
DYEAR=1993
DGENRE=Country
TTITLE0=You've Never Been This Far Before
TTITLE1=Hello Darlin'
TTITLE2=(Lost Her Love) On Our Last Date
TTITLE3=After All The Good Is Gone
TTITLE4=The Games That Daddy Play
TTITLE5=I Can't See Me Without You
TTITLE6=To See An Angel Cry
TTITLE7=Danny Boy
TTITLE8=Fifteen Years Ago
TTITLE9=As soon As I Hang Up The Phone
TTITLE10=It's Only Make Believe
TTITLE11=Linda On My Mind
TTITLE12=(I can't Believe) She Gives At All To Me
TTITLE13=Touch The Hand
TTITLE14=Baby's Gone
TTITLE15=She Needs Someone To Hold Her When She Cries
TTITLE16=This Time I Hurt Her More (Than She Loves Me)
TTITLE17=I'll Try
TTITLE18=Don't Cry Joni
TTITLE19=I'm Not Through Loving You Yet
EXTD=
EXTT0=
EXTT1=
EXTT2=
EXTT3=
EXTT4=
EXTT5=
EXTT6=
EXTT7=
EXTT8=
EXTT9=
EXTT10=
EXTT11=
EXTT12=
EXTT13=
EXTT14=
EXTT15=
EXTT16=
EXTT17=
EXTT18=
EXTT19=
PLAYORDER=
